ffmpeg version 3.4.8-0ubuntu0.2 Copyright (c) 2000-2020 the FFmpeg developers
  built with gcc 7 (Ubuntu 7.5.0-3ubuntu1~18.04)
  configuration: --prefix=/usr --extra-version=0ubuntu0.2 --toolchain=hardened --libdir=/usr/lib/x86_64-linux-gnu --incdir=/usr/include/x86_64-linux-gnu --enable-gpl --disable-stripping --enable-avresample --enable-avisynth --enable-gnutls --enable-ladspa --enable-libass --enable-libbluray --enable-libbs2b --enable-libcaca --enable-libcdio --enable-libflite --enable-libfontconfig --enable-libfreetype --enable-libfribidi --enable-libgme --enable-libgsm --enable-libmp3lame --enable-libmysofa --enable-libopenjpeg --enable-libopenmpt --enable-libopus --enable-libpulse --enable-librubberband --enable-librsvg --enable-libshine --enable-libsnappy --enable-libsoxr --enable-libspeex --enable-libssh --enable-libtheora --enable-libtwolame --enable-libvorbis --enable-libvpx --enable-libwavpack --enable-libwebp --enable-libx265 --enable-libxml2 --enable-libxvid --enable-libzmq --enable-libzvbi --enable-omx --enable-openal --enable-opengl --enable-sdl2 --enable-libdc1394 --enable-libdrm --enable-libiec61883 --enable-chromaprint --enable-frei0r --enable-libopencv --enable-libx264 --enable-shared
  libavutil      55. 78.100 / 55. 78.100
  libavcodec     57.107.100 / 57.107.100
  libavformat    57. 83.100 / 57. 83.100
  libavdevice    57. 10.100 / 57. 10.100
  libavfilter     6.107.100 /  6.107.100
  libavresample   3.  7.  0 /  3.  7.  0
  libswscale      4.  8.100 /  4.  8.100
  libswresample   2.  9.100 /  2.  9.100
  libpostproc    54.  7.100 / 54.  7.100
[rawvideo @ 0x55c307c35a20] Estimating duration from bitrate, this may be inaccurate
Input #0, rawvideo, from '../../SVC-Encoder-20220109T061506Z-001/SVC-Encoder/Dataset/RollerCoaster/ERP_8x8/tile_yuv/Tile_37_480x240.yuv':
  Duration: 00:00:10.00, start: 0.000000, bitrate: 41472 kb/s
    Stream #0:0: Video: rawvideo (I420 / 0x30323449), yuv420p, 480x240, 41472 kb/s, 30 tbr, 30 tbn, 30 tbc
Stream mapping:
  Stream #0:0 -> #0:0 (rawvideo (native) -> h264 (libx264))
Press [q] to stop, [?] for help
[libx264 @ 0x55c307c42c60] using cpu capabilities: MMX2 SSE2Fast LZCNT SSSE3 SSE4.2 AVX
[libx264 @ 0x55c307c42c60] profile High, level 2.1
Output #0, rawvideo, to 'RollerCoaster_Tile_37_480x240_x264_QP_32.h264':
  Metadata:
    encoder         : Lavf57.83.100
    Stream #0:0: Video: h264 (libx264), yuv420p, 480x240, q=-1--1, 30 fps, 30 tbn, 30 tbc
    Metadata:
      encoder         : Lavc57.107.100 libx264
    Side data:
      cpb: bitrate max/min/avg: 0/0/0 buffer size: 0 vbv_delay: -1
frame=  177 fps=0.0 q=38.0 PSNR=Y:nan U:nan V:nan *:nan size=      54kB time=00:00:04.46 bitrate=  99.2kbits/s speed=8.92x    frame=  300 fps=0.0 q=38.0 LPSNR=Y:inf U:inf V:inf *:inf size=     118kB time=00:00:09.93 bitrate=  97.1kbits/s speed=10.7x    
video:118kB audio:0kB subtitle:0kB other streams:0kB global headers:0kB muxing overhead: 0.000000%
[libx264 @ 0x55c307c42c60] frame I:2     Avg QP:29.75  size:  9224  PSNR Mean Y:36.57 U:45.84 V:49.84 Avg:38.15 Global:38.07
[libx264 @ 0x55c307c42c60] frame P:76    Avg QP:31.99  size:   923  PSNR Mean Y:34.52 U:45.18 V:48.29 Avg:36.14 Global:36.12
[libx264 @ 0x55c307c42c60] frame B:222   Avg QP:37.60  size:   144  PSNR Mean Y:34.43 U:45.27 V:48.44 Avg:36.06 Global:36.04
[libx264 @ 0x55c307c42c60] consecutive B-frames:  1.3%  0.0%  0.0% 98.7%
[libx264 @ 0x55c307c42c60] mb I  I16..4: 12.7% 84.4%  2.9%
[libx264 @ 0x55c307c42c60] mb P  I16..4:  0.3%  0.7%  0.3%  P16..4: 44.2%  8.3%  1.2%  0.0%  0.0%    skip:44.9%
[libx264 @ 0x55c307c42c60] mb B  I16..4:  0.0%  0.0%  0.0%  B16..8: 21.0%  0.6%  0.2%  direct: 0.1%  skip:78.1%  L0:31.4% L1:68.3% BI: 0.3%
[libx264 @ 0x55c307c42c60] 8x8 transform intra:73.1% inter:72.4%
[libx264 @ 0x55c307c42c60] coded y,uvDC,uvAC intra: 70.2% 51.9% 18.2% inter: 4.0% 1.1% 0.0%
[libx264 @ 0x55c307c42c60] i16 v,h,dc,p: 20% 39% 32%  9%
[libx264 @ 0x55c307c42c60] i8 v,h,dc,ddl,ddr,vr,hd,vl,hu:  6% 12% 25%  7%  9% 14%  8%  6% 14%
[libx264 @ 0x55c307c42c60] i4 v,h,dc,ddl,ddr,vr,hd,vl,hu:  9%  6% 30%  4% 12% 29%  3%  2%  5%
[libx264 @ 0x55c307c42c60] i8c dc,h,v,p: 66% 18% 11%  6%
[libx264 @ 0x55c307c42c60] Weighted P-Frames: Y:1.3% UV:0.0%
[libx264 @ 0x55c307c42c60] ref P L0: 64.5% 22.1%  9.1%  4.2%  0.0%
[libx264 @ 0x55c307c42c60] ref B L0: 90.0%  8.9%  1.1%
[libx264 @ 0x55c307c42c60] ref B L1: 86.1% 13.9%
[libx264 @ 0x55c307c42c60] PSNR Mean Y:34.466 U:45.248 V:48.412 Avg:36.092 Global:36.068 kb/s:96.43
